HIERARCHY
ROOT joint_0
{
	OFFSET 0.000000 0.000000 0.000000
	CHANNELS 6 Xposition Yposition Zposition Zrotation Yrotation Xrotation 
	JOINT joint_1
	{
		OFFSET 0.511002 1.944000 108.288940
		CHANNELS 3 Zrotation Yrotation Xrotation
		JOINT joint_2
		{
			OFFSET -9.074005 1.512993 98.440063
			CHANNELS 3 Zrotation Yrotation Xrotation
			JOINT joint_3
			{
				OFFSET -8.590996 1.815002 98.366943
				CHANNELS 3 Zrotation Yrotation Xrotation
				JOINT joint_4
				{
					OFFSET 2.489998 3.531998 136.462036
					CHANNELS 3 Zrotation Yrotation Xrotation
					JOINT joint_5
					{
						OFFSET 22.708000 2.955002 80.357056
						CHANNELS 3 Zrotation Yrotation Xrotation
						End Site
						{
							OFFSET 0.000000 0.000000 0.000000
						}
					}
				}
				JOINT joint_6
				{
					OFFSET 2.860001 -27.684998 77.234009
					CHANNELS 3 Zrotation Yrotation Xrotation
					JOINT joint_7
					{
						OFFSET 5.449997 -131.244003 -18.851929
						CHANNELS 3 Zrotation Yrotation Xrotation
						JOINT joint_8
						{
							OFFSET 35.757000 -24.661995 -264.074097
							CHANNELS 3 Zrotation Yrotation Xrotation
							JOINT joint_9
							{
								OFFSET 49.392001 -1.747002 -239.960938
								CHANNELS 3 Zrotation Yrotation Xrotation
								End Site
								{
									OFFSET 0.000000 0.000000 0.000000
								}
							}
						}
					}
				}
				JOINT joint_10
				{
					OFFSET -0.127998 31.625000 75.753052
					CHANNELS 3 Zrotation Yrotation Xrotation
					JOINT joint_11
					{
						OFFSET -5.618004 131.132996 -19.557007
						CHANNELS 3 Zrotation Yrotation Xrotation
						JOINT joint_12
						{
							OFFSET 46.488998 30.127991 -261.826050
							CHANNELS 3 Zrotation Yrotation Xrotation
							JOINT joint_13
							{
								OFFSET 66.021003 0.474030 -235.934937
								CHANNELS 3 Zrotation Yrotation Xrotation
								End Site
								{
									OFFSET 0.000000 0.000000 0.000000
								}
							}
						}
					}
				}
			}
		}
	}
	JOINT joint_14
	{
		OFFSET 15.887001 -78.871004 -94.561035
		CHANNELS 3 Zrotation Yrotation Xrotation
		JOINT joint_15
		{
			OFFSET -4.133003 6.714001 -473.615967
			CHANNELS 3 Zrotation Yrotation Xrotation
			JOINT joint_16
			{
				OFFSET -19.541000 5.340000 -399.613007
				CHANNELS 3 Zrotation Yrotation Xrotation
				JOINT joint_17
				{
					OFFSET 164.317001 41.657999 -73.195000
					CHANNELS 3 Zrotation Yrotation Xrotation
					End Site
					{
						OFFSET 0.000000 0.000000 0.000000
					}
				}
			}
		}
	}
	JOINT joint_18
	{
		OFFSET 6.513000 77.960991 -96.406982
		CHANNELS 3 Zrotation Yrotation Xrotation
		JOINT joint_19
		{
			OFFSET -10.660004 -8.518997 -473.485016
			CHANNELS 3 Zrotation Yrotation Xrotation
			JOINT joint_20
			{
				OFFSET -36.967995 -11.098999 -398.260010
				CHANNELS 3 Zrotation Yrotation Xrotation
				JOINT joint_21
				{
					OFFSET 166.067997 30.363998 -74.785000
					CHANNELS 3 Zrotation Yrotation Xrotation
					End Site
					{
						OFFSET 0.000000 0.000000 0.000000
					}
				}
			}
		}
	}
}
MOTION
Frames: 13
Frame Time: 0.016667
-2003.935669 876.610718 1060.874023 2.377646 -0.803200 1.021305 -0.485233 1.231179 0.237592 -0.484421 -0.187958 -0.044283 -0.483271 0.248904 0.057769 0.071656 -0.326068 -0.211493 0.000000 0.000000 0.000000 1.212814 -1.859131 -0.923489 -0.340915 -1.766209 -3.959924 0.210233 -0.268177 1.011046 0.000000 0.000000 0.000000 -1.844243 0.191581 0.188586 0.122320 0.488399 0.276512 0.583801 1.735461 2.063291 0.000000 0.000000 0.000000 -2.125921 1.170114 -2.402828 -2.172212 -0.811421 -0.271446 -2.122210 0.297054 -1.018491 0.000000 0.000000 0.000000 -0.595976 -0.158022 1.684096 -0.503323 -2.282055 -0.615674 -0.621770 2.337736 -0.706362 0.000000 0.000000 0.000000 
-2003.833374 876.695984 1060.863037 2.379151 -0.805181 1.020823 -0.482881 1.234559 0.237150 -0.481953 -0.188607 -0.043836 -0.480932 0.250265 0.057202 0.071664 -0.328073 -0.211270 0.000000 0.000000 0.000000 1.212989 -1.857159 -0.915395 -0.342654 -1.764779 -3.971566 0.207666 -0.258337 0.998890 0.000000 0.000000 0.000000 -1.844195 0.190924 0.179381 0.124245 0.488703 0.283265 0.584916 1.732799 2.067389 0.000000 0.000000 0.000000 -2.127333 1.171837 -2.406941 -2.173474 -0.796967 -0.273722 -2.123946 0.288714 -1.017143 0.000000 0.000000 0.000000 -0.596484 -0.154390 1.680238 -0.504005 -2.271481 -0.617621 -0.622251 2.329535 -0.705084 0.000000 0.000000 0.000000 
-2003.726440 876.775757 1060.853027 2.383882 -0.802831 1.021017 -0.481325 1.229485 0.233920 -0.480229 -0.188760 -0.043772 -0.479231 0.250058 0.057023 0.071447 -0.324391 -0.210982 0.000000 0.000000 0.000000 1.209118 -1.855817 -0.906283 -0.343920 -1.764565 -3.980438 0.204365 -0.245661 0.983251 0.000000 0.000000 0.000000 -1.846140 0.191843 0.171285 0.125771 0.490835 0.291427 0.585407 1.735685 2.069194 0.000000 0.000000 0.000000 -2.129694 1.170190 -2.410607 -2.175656 -0.784717 -0.277253 -2.126572 0.282198 -1.016653 0.000000 0.000000 0.000000 -0.598001 -0.154589 1.676353 -0.505712 -2.263202 -0.620130 -0.623834 2.322623 -0.704535 0.000000 0.000000 0.000000 
-2003.617065 876.852844 1060.843018 2.389809 -0.798621 1.021636 -0.480584 1.219634 0.228069 -0.479020 -0.188987 -0.042049 -0.478313 0.249506 0.055401 0.070886 -0.315800 -0.210108 0.000000 0.000000 0.000000 1.204114 -1.855459 -0.896214 -0.344851 -1.765528 -3.987761 0.200694 -0.231199 0.965872 0.000000 0.000000 0.000000 -1.847674 0.193880 0.164907 0.127017 0.493934 0.300216 0.585493 1.741680 2.069523 0.000000 0.000000 0.000000 -2.132353 1.167076 -2.414081 -2.178118 -0.773282 -0.281680 -2.129492 0.276224 -1.016431 0.000000 0.000000 0.000000 -0.599840 -0.156474 1.672376 -0.507751 -2.255817 -0.623014 -0.625800 2.316651 -0.704329 0.000000 0.000000 0.000000 
-2003.510132 876.932678 1060.832031 2.394228 -0.797400 1.021339 -0.480528 1.211372 0.223566 -0.478663 -0.188605 -0.041026 -0.478104 0.249075 0.054609 0.070683 -0.308127 -0.210381 0.000000 0.000000 0.000000 1.203209 -1.855767 -0.886866 -0.346177 -1.766582 -3.997274 0.198276 -0.222512 0.954387 0.000000 0.000000 0.000000 -1.846724 0.196154 0.157324 0.128707 0.497046 0.309633 0.585836 1.745602 2.070781 0.000000 0.000000 0.000000 -2.134540 1.167054 -2.416740 -2.180139 -0.761604 -0.286180 -2.132017 0.269088 -1.015739 0.000000 0.000000 0.000000 -0.601350 -0.154597 1.669379 -0.509342 -2.249338 -0.626131 -0.627383 2.310905 -0.703993 0.000000 0.000000 0.000000 
-2003.405884 877.018188 1060.818970 2.396392 -0.802571 1.019354 -0.480548 1.208356 0.222300 -0.478723 -0.188021 -0.041509 -0.478098 0.249122 0.054821 0.070858 -0.301203 -0.211896 0.000000 0.000000 0.000000 1.205347 -1.856834 -0.879162 -0.347961 -1.767969 -4.009984 0.197749 -0.221397 0.951841 0.000000 0.000000 0.000000 -1.845045 0.198361 0.147602 0.131276 0.500258 0.320349 0.586705 1.745642 2.073937 0.000000 0.000000 0.000000 -2.135676 1.174501 -2.418059 -2.181215 -0.751271 -0.290482 -2.133613 0.261045 -1.014403 0.000000 0.000000 0.000000 -0.602380 -0.144662 1.667630 -0.510241 -2.244710 -0.628860 -0.628317 2.305425 -0.703415 0.000000 0.000000 0.000000 
-2003.304932 877.106323 1060.805054 2.397123 -0.810847 1.016521 -0.481494 1.208224 0.221538 -0.479602 -0.188198 -0.041032 -0.479035 0.249123 0.054724 0.071275 -0.293741 -0.214332 0.000000 0.000000 0.000000 1.212387 -1.858511 -0.871921 -0.350108 -1.769284 -4.024732 0.198369 -0.225362 0.954691 0.000000 0.000000 0.000000 -1.839524 0.200839 0.136693 0.134213 0.503317 0.332055 0.587660 1.744108 2.077420 0.000000 0.000000 0.000000 -2.136445 1.185115 -2.418530 -2.181954 -0.740799 -0.294956 -2.134907 0.252357 -1.012769 0.000000 0.000000 0.000000 -0.603266 -0.130951 1.666660 -0.510891 -2.240888 -0.631542 -0.629037 2.300433 -0.702829 0.000000 0.000000 0.000000 
-2003.212769 877.191345 1060.791016 2.397971 -0.816719 1.014119 -0.481814 1.206483 0.219540 -0.479744 -0.187663 -0.040173 -0.479340 0.249512 0.053750 0.071588 -0.286587 -0.216365 0.000000 0.000000 0.000000 1.217281 -1.861226 -0.863409 -0.351939 -1.771982 -4.038067 0.199359 -0.230728 0.959298 0.000000 0.000000 0.000000 -1.835820 0.201898 0.127499 0.136823 0.505049 0.342440 0.588850 1.742838 2.081740 0.000000 0.000000 0.000000 -2.137151 1.191571 -2.419746 -2.182561 -0.728251 -0.298552 -2.136065 0.243213 -1.010960 0.000000 0.000000 0.000000 -0.603872 -0.121321 1.666046 -0.511330 -2.235268 -0.635724 -0.629633 2.294674 -0.702048 0.000000 0.000000 0.000000 
-2003.134033 877.271667 1060.776978 2.399832 -0.817257 1.013151 -0.481104 1.203484 0.214127 -0.478526 -0.187999 -0.039087 -0.478236 0.249321 0.053608 0.071853 -0.278728 -0.218318 0.000000 0.000000 0.000000 1.217283 -1.864566 -0.852696 -0.353677 -1.776062 -4.050369 0.200430 -0.238400 0.964218 0.000000 0.000000 0.000000 -1.835110 0.200997 0.119935 0.138801 0.504996 0.350310 0.590686 1.743474 2.088351 0.000000 0.000000 0.000000 -2.138561 1.189007 -2.422783 -2.183717 -0.710912 -0.300891 -2.137774 0.233338 -1.009211 0.000000 0.000000 0.000000 -0.604557 -0.120509 1.664820 -0.512075 -2.225612 -0.641324 -0.630540 2.288075 -0.701253 0.000000 0.000000 0.000000 
-2003.064209 877.349854 1060.762939 2.402165 -0.815341 1.012466 -0.479887 1.198922 0.208304 -0.476833 -0.188076 -0.038426 -0.476714 0.250290 0.052567 0.071909 -0.272451 -0.219329 0.000000 0.000000 0.000000 1.215898 -1.869131 -0.840302 -0.355186 -1.781616 -4.061520 0.201751 -0.247677 0.970304 0.000000 0.000000 0.000000 -1.834886 0.198186 0.114276 0.140251 0.502900 0.357123 0.592491 1.744966 2.094855 0.000000 0.000000 0.000000 -2.140330 1.182168 -2.426277 -2.185156 -0.691331 -0.302531 -2.139756 0.223296 -1.007542 0.000000 0.000000 0.000000 -0.605097 -0.123897 1.663995 -0.512748 -2.214062 -0.648304 -0.631445 2.280886 -0.700348 0.000000 0.000000 0.000000 
-2002.996338 877.428833 1060.750000 2.403214 -0.816304 1.011481 -0.478289 1.197343 0.202886 -0.474649 -0.189384 -0.036961 -0.474796 0.251696 0.051579 0.072116 -0.266511 -0.220830 0.000000 0.000000 0.000000 1.216266 -1.873736 -0.829606 -0.356205 -1.786794 -4.068813 0.202543 -0.254963 0.973885 0.000000 0.000000 0.000000 -1.834288 0.195006 0.106577 0.141918 0.500572 0.365648 0.593545 1.744561 2.098710 0.000000 0.000000 0.000000 -2.141305 1.179236 -2.429556 -2.185879 -0.673959 -0.304245 -2.140984 0.214475 -1.005848 0.000000 0.000000 0.000000 -0.605466 -0.123651 1.662555 -0.513222 -2.203530 -0.653387 -0.632029 2.274828 -0.699507 0.000000 0.000000 0.000000 
-2002.927856 877.509888 1060.738037 2.402167 -0.822657 1.009505 -0.476508 1.199573 0.200321 -0.472631 -0.189414 -0.036983 -0.472793 0.251996 0.051500 0.072654 -0.260075 -0.223566 0.000000 0.000000 0.000000 1.222864 -1.878033 -0.822619 -0.356546 -1.790426 -4.069325 0.202180 -0.259047 0.971970 0.000000 0.000000 0.000000 -1.830480 0.191698 0.097198 0.143654 0.497791 0.375803 0.593177 1.741036 2.097544 0.000000 0.000000 0.000000 -2.141277 1.183717 -2.431458 -2.185721 -0.659826 -0.306985 -2.141334 0.206739 -1.004037 0.000000 0.000000 0.000000 -0.605431 -0.116191 1.660645 -0.513187 -2.195166 -0.655709 -0.631943 2.269720 -0.698539 0.000000 0.000000 0.000000 
-2002.860352 877.590881 1060.725952 2.399911 -0.832026 1.007158 -0.474244 1.204748 0.198899 -0.470198 -0.191087 -0.037446 -0.470418 0.254079 0.051190 0.073361 -0.256038 -0.226592 0.000000 0.000000 0.000000 1.231332 -1.882624 -0.816618 -0.356426 -1.793948 -4.066133 0.201324 -0.261610 0.967713 0.000000 0.000000 0.000000 -1.826288 0.187642 0.087457 0.145409 0.494272 0.387082 0.591941 1.735552 2.093314 0.000000 0.000000 0.000000 -2.140826 1.192411 -2.432853 -2.185222 -0.647920 -0.309933 -2.141333 0.199076 -1.002088 0.000000 0.000000 0.000000 -0.605188 -0.104806 1.658419 -0.512893 -2.187855 -0.656530 -0.631503 2.264691 -0.697427 0.000000 0.000000 0.000000 
